<svg width="17" height="18" viewBox="0 0 17 18" fill="none" xmlns="http://www.w3.org/2000/svg">
<path d="M11.5395 2.41812V2.91812H12.0395H13.6379C14.1303 2.91812 14.6096 3.12654 14.9684 3.50933L15.3332 3.16742L14.9684 3.50933C15.3282 3.89322 15.5354 4.42043 15.5354 4.97641V15.2096C15.5354 15.7656 15.3282 16.2928 14.9684 16.6767C14.6096 17.0595 14.1303 17.2679 13.6379 17.2679H2.44921C1.95679 17.2679 1.47744 17.0595 1.1187 16.6767C0.758926 16.2928 0.551636 15.7656 0.551636 15.2096V4.97641C0.551636 4.42043 0.758926 3.89322 1.1187 3.50933C1.47744 3.12654 1.95679 2.91812 2.44921 2.91812H4.04759H4.54759V2.41812V1.56535C4.54759 1.4617 4.58648 1.3683 4.64649 1.30426L4.28166 0.962354L4.64649 1.30426C4.70548 1.24132 4.77828 1.21259 4.84678 1.21259C4.91527 1.21259 4.98808 1.24132 5.04706 1.30426L5.4072 0.96675L5.04706 1.30426C5.10708 1.3683 5.14597 1.4617 5.14597 1.56535V2.41812V2.91812H5.64597H10.4411H10.9411V2.41812V1.56535C10.9411 1.4617 10.98 1.3683 11.04 1.30426C11.099 1.24132 11.1718 1.21259 11.2403 1.21259C11.3088 1.21259 11.3816 1.24132 11.4406 1.30426C11.5006 1.3683 11.5395 1.4617 11.5395 1.56535V2.41812ZM1.65002 8.74024H1.15002V9.24024V15.2096C1.15002 15.5583 1.27953 15.8987 1.51927 16.1545C1.76004 16.4114 2.09379 16.5624 2.44921 16.5624H13.6379C13.9933 16.5624 14.327 16.4114 14.5678 16.1545C14.8076 15.8987 14.9371 15.5583 14.9371 15.2096V9.24024V8.74024H14.4371H1.65002ZM14.4371 8.03471H14.9371V7.53471V4.97641C14.9371 4.62773 14.8076 4.28732 14.5678 4.03151C14.327 3.7746 13.9933 3.62365 13.6379 3.62365H12.0395H11.5395V4.12365V4.97641C11.5395 5.08006 11.5006 5.17346 11.4406 5.2375C11.3816 5.30044 11.3088 5.32917 11.2403 5.32917C11.1718 5.32917 11.099 5.30044 11.04 5.2375C10.98 5.17346 10.9411 5.08006 10.9411 4.97641V4.12365V3.62365H10.4411H5.64597H5.14597V4.12365V4.97641C5.14597 5.08006 5.10708 5.17346 5.04706 5.2375L5.41189 5.57941L5.04706 5.2375C4.98808 5.30044 4.91527 5.32917 4.84678 5.32917C4.77828 5.32917 4.70548 5.30044 4.64649 5.2375L4.28166 5.57941L4.64649 5.2375C4.58648 5.17346 4.54759 5.08006 4.54759 4.97641V4.12365V3.62365H4.04759H2.44921C2.09379 3.62365 1.76003 3.7746 1.51927 4.03151C1.27953 4.28732 1.15002 4.62773 1.15002 4.97641V7.53471V8.03471H1.65002H14.4371Z" fill="#9197B3" stroke="#9197B3"/>
</svg>
