<svg width="17" height="16" viewBox="0 0 17 16" fill="none" xmlns="http://www.w3.org/2000/svg">
<path d="M11.5396 12.5899C10.4592 12.5899 9.26865 13.0319 8.18213 13.6021C6.43565 14.5189 5.56241 14.9777 5.13234 14.6851C4.70228 14.3934 4.78357 13.4872 4.94703 11.6758L4.98374 11.2639" fill="#9197B3"/>
<path d="M11.5396 12.5899C10.4592 12.5899 9.26865 13.0319 8.18213 13.6021C6.43565 14.5189 5.56241 14.9777 5.13234 14.6851C4.70228 14.3934 4.78357 13.4872 4.94703 11.6758L4.98374 11.2639" stroke="#9197B3" stroke-width="2" stroke-linecap="round"/>
<path d="M11.54 11.5894C10.9877 11.5894 10.54 12.0371 10.54 12.5894C10.54 13.1417 10.9877 13.5894 11.54 13.5894V11.5894ZM3.0506 2.98102H13.0364V0.981018H3.0506V2.98102ZM14.0364 3.98102V10.5894H16.0364V3.98102H14.0364ZM2.0506 10.5894V3.98102H0.0505981V10.5894H2.0506ZM13.0364 11.5894H11.54V13.5894H13.0364V11.5894ZM4.54706 11.5894H3.0506V13.5894H4.54706V11.5894ZM0.0505981 10.5894C0.0505981 12.2462 1.39374 13.5894 3.0506 13.5894V11.5894C2.49831 11.5894 2.0506 11.1417 2.0506 10.5894H0.0505981ZM14.0364 10.5894C14.0364 11.1417 13.5887 11.5894 13.0364 11.5894V13.5894C14.6933 13.5894 16.0364 12.2462 16.0364 10.5894H14.0364ZM13.0364 2.98102C13.5887 2.98102 14.0364 3.42873 14.0364 3.98102H16.0364C16.0364 2.32416 14.6933 0.981018 13.0364 0.981018V2.98102ZM3.0506 0.981018C1.39374 0.981018 0.0505981 2.32417 0.0505981 3.98102H2.0506C2.0506 3.42873 2.49831 2.98102 3.0506 2.98102V0.981018Z" fill="#9197B3"/>
</svg>
