<svg width="16" height="13" viewBox="0 0 16 13" fill="none" xmlns="http://www.w3.org/2000/svg">
<path d="M14.9848 7.92879H13.9767C13.564 7.92879 13.1937 7.67525 13.0444 7.29048L12.0323 4.68188C11.974 4.53209 11.8757 4.40557 11.7505 4.31931C11.6252 4.23306 11.4791 4.19118 11.3318 4.1993C11.1844 4.20742 11.0428 4.26515 10.926 4.36474C10.8091 4.46434 10.7227 4.60104 10.6781 4.7565L9.53519 8.75597C9.25449 9.73822 7.8552 9.71708 7.6043 8.7268L5.79466 1.58421C5.7526 1.41796 5.66298 1.27121 5.53919 1.16592C5.4154 1.06062 5.2641 1.00244 5.1079 1.00007C4.95146 0.997772 4.79856 1.05159 4.67213 1.15345C4.5457 1.25531 4.45256 1.39972 4.40668 1.56503L2.83857 7.19701C2.71814 7.62954 2.3242 7.92879 1.87521 7.92879H0.998962" stroke="#9197B3" stroke-width="2" stroke-linecap="round"/>
</svg>
