<svg width="17" height="18" viewBox="0 0 17 18" fill="none" xmlns="http://www.w3.org/2000/svg">
<path d="M15.3535 4.48133L15.3571 4.48827C15.4621 4.68907 15.524 4.92069 15.534 5.16211L16.0336 5.14139L15.534 5.16211C15.544 5.40217 15.5021 5.63944 15.4143 5.85203L12.7094 12.0623C12.7093 12.0625 12.7093 12.0626 12.7092 12.0628C12.6742 12.1422 12.625 12.1995 12.5748 12.2351C12.5255 12.27 12.4761 12.2841 12.4315 12.2844H5.00404H4.99421L4.98439 12.2848C4.93061 12.2869 4.86856 12.269 4.80851 12.218C4.74681 12.1656 4.69153 12.0806 4.66549 11.9693L4.66545 11.9691L2.38735 2.24758L2.29691 1.86166H1.90053H0.877036C0.814748 1.86166 0.738455 1.83384 0.670403 1.75572C0.600445 1.67541 0.551636 1.5534 0.551636 1.41414C0.551636 1.27488 0.600445 1.15287 0.670403 1.07256C0.738454 0.994445 0.814748 0.96662 0.877036 0.96662H2.52784H2.53766L2.54748 0.966234C2.60126 0.964119 2.66331 0.98198 2.72337 1.033C2.78469 1.08508 2.83967 1.16939 2.86591 1.27967L3.34402 3.41827L3.43141 3.80918H3.83197H14.392C14.5753 3.81338 14.7597 3.87151 14.9277 3.98495C15.0977 4.09974 15.2466 4.26861 15.3536 4.4813L15.3535 4.48133ZM11.9209 11.3893H12.2485L12.3793 11.089L14.8555 5.40389L15.1602 4.70422H14.3971H4.28594H3.6538L3.79938 5.31937L5.14478 11.0045L5.23586 11.3893H5.63134H11.9209Z" fill="#9197B3" stroke="#9197B3"/>
<path d="M5.32868 16.101C5.32868 16.6769 4.93566 17.0223 4.59058 17.0223C4.2455 17.0223 3.85248 16.6769 3.85248 16.101C3.85248 15.5252 4.2455 15.1798 4.59058 15.1798C4.93566 15.1798 5.32868 15.5252 5.32868 16.101Z" fill="#9197B3" stroke="#9197B3"/>
<path d="M13.5832 16.101C13.5832 16.6769 13.1902 17.0223 12.8451 17.0223C12.5 17.0223 12.107 16.6769 12.107 16.101C12.107 15.5252 12.5 15.1798 12.8451 15.1798C13.1902 15.1798 13.5832 15.5252 13.5832 16.101Z" fill="#9197B3" stroke="#9197B3"/>
</svg>
