<svg width="16" height="16" viewBox="0 0 16 16" fill="none" xmlns="http://www.w3.org/2000/svg">
<path d="M4.35989 1.5239H3.85989V2.0239V3.18205H3.40686V2.0239C3.40686 1.69698 3.52126 1.3946 3.70849 1.18094C3.89387 0.969382 4.13004 0.865746 4.35989 0.865746H14.5311C14.761 0.865746 14.9971 0.969382 15.1825 1.18094C15.3697 1.3946 15.4841 1.69698 15.4841 2.0239V10.3147C15.4841 10.6416 15.3697 10.944 15.1825 11.1576C14.9971 11.3692 14.761 11.4728 14.5311 11.4728H13.5781V10.8147H14.5311H15.0311V10.3147V2.0239V1.5239H14.5311H4.35989Z" fill="#9197B3" stroke="#9197B3"/>
<path d="M0.953031 13.6301V14.1301H1.45303H11.6242H12.1242V13.6301V5.33929V4.83929H11.6242H1.45303H0.953031V5.33929V13.6301ZM1.45303 4.18114H11.6242C11.8541 4.18114 12.0903 4.28477 12.2756 4.49633C12.4629 4.70999 12.5773 5.01237 12.5773 5.33929V13.6301C12.5773 13.957 12.4629 14.2594 12.2756 14.473C12.0903 14.6846 11.8541 14.7882 11.6242 14.7882H1.45303C1.22318 14.7882 0.987013 14.6846 0.80163 14.473C0.614396 14.2594 0.5 13.957 0.5 13.6301V5.33929C0.5 5.01237 0.614396 4.70999 0.80163 4.49633C0.987013 4.28477 1.22318 4.18114 1.45303 4.18114Z" fill="#9197B3" stroke="#9197B3"/>
</svg>
