<svg width="17" height="19" viewBox="0 0 17 19" fill="none" xmlns="http://www.w3.org/2000/svg">
<path d="M3.27608 4.45009C4.585 3.05056 6.15648 2.35908 8.04354 2.35908C9.9138 2.35908 11.4795 3.05284 12.7981 4.4515L3.27608 4.45009ZM3.27608 4.45009C1.96497 5.84717 1.32761 7.5081 1.32761 9.4917C1.32761 11.456 1.96592 13.1119 3.27577 14.5178C4.58588 15.9269 6.15666 16.6243 8.04354 16.6243C9.91342 16.6243 11.4796 15.9247 12.7961 14.5169C14.1159 13.1105 14.7595 11.4543 14.7595 9.4917C14.7595 7.50982 14.1178 5.84846 12.7981 4.45154L3.27608 4.45009ZM2.74801 15.1719L2.74752 15.1714C1.29058 13.6078 0.551636 11.705 0.551636 9.4917C0.551636 7.25539 1.29223 5.34606 2.74902 3.7934L2.74931 3.79308C4.20242 2.24167 5.97618 1.46405 8.04354 1.46405C10.0902 1.46405 11.8586 2.23988 13.3219 3.79318L13.3223 3.79359C14.7895 5.34754 15.5354 7.25657 15.5354 9.4917C15.5354 11.7038 14.7911 13.6073 13.3229 15.1731L13.3226 15.1734C11.858 16.7379 10.0898 17.5194 8.04354 17.5194C5.97647 17.5194 4.20226 16.737 2.74801 15.1719Z" fill="#9197B3" stroke="#9197B3"/>
<path d="M11.0394 9.49179C11.0394 11.3565 9.63799 12.7556 8.0435 12.7556C6.44901 12.7556 5.04755 11.3565 5.04755 9.49179C5.04755 7.62712 6.44901 6.22797 8.0435 6.22797C9.63799 6.22797 11.0394 7.62712 11.0394 9.49179Z" fill="#9197B3" stroke="#9197B3" stroke-width="2"/>
</svg>
