<svg width="17" height="18" viewBox="0 0 17 18" fill="none" xmlns="http://www.w3.org/2000/svg">
<path d="M3.27601 3.70157C4.58495 2.30199 6.15645 1.61049 8.04354 1.61049C9.9138 1.61049 11.4795 2.30424 12.7981 3.70291L3.27601 3.70157ZM3.27601 3.70157C1.96495 5.09863 1.32761 6.75954 1.32761 8.7431C1.32761 10.7074 1.96593 12.3634 3.27579 13.7692C4.58589 15.1783 6.15667 15.8757 8.04354 15.8757C9.91342 15.8757 11.4796 15.1761 12.7961 13.7683C14.1159 12.3619 14.7595 10.7057 14.7595 8.7431C14.7595 6.76123 14.1178 5.09986 12.7981 3.70294L3.27601 3.70157ZM2.74801 14.4233L2.74752 14.4228C1.29058 12.8592 0.551636 10.9564 0.551636 8.7431C0.551636 6.5068 1.29223 4.59747 2.74902 3.0448L2.74931 3.04449C4.20242 1.49307 5.97618 0.715454 8.04354 0.715454C10.0902 0.715454 11.8586 1.49129 13.3219 3.04458L13.3223 3.045C14.7895 4.59895 15.5354 6.50798 15.5354 8.7431C15.5354 10.9552 14.7911 12.8587 13.3229 14.4245L13.3226 14.4248C11.858 15.9893 10.0898 16.7708 8.04354 16.7708C5.97647 16.7708 4.20226 15.9884 2.74801 14.4233ZM10.7075 10.6119C9.78918 10.6119 8.98753 9.80464 8.98753 8.7431C8.98753 7.68157 9.78918 6.87431 10.7075 6.87431C11.6258 6.87431 12.4275 7.68157 12.4275 8.7431C12.4275 9.80464 11.6258 10.6119 10.7075 10.6119Z" fill="#9197B3" stroke="#9197B3"/>
</svg>
