<svg width="16" height="22" viewBox="0 0 16 22" fill="none" xmlns="http://www.w3.org/2000/svg">
<path d="M2.24892 15.6241L1.49798 15.1883V16.0565V17.4082C1.49798 17.8258 1.78971 18.1811 2.08431 18.4363C2.4062 18.7151 2.85591 18.9829 3.40514 19.2162C4.50759 19.6844 6.07359 20.0401 7.9919 20.0401C9.91022 20.0401 11.4762 19.6844 12.5787 19.2162C13.1279 18.9829 13.5776 18.7151 13.8995 18.4363C14.1941 18.1811 14.4858 17.8258 14.4858 17.4082V16.0565V15.1883L13.7349 15.6241C12.297 16.4584 10.1593 16.9082 7.9919 16.9082C5.82455 16.9082 3.68684 16.4584 2.24892 15.6241ZM2.24892 7.09642L1.49798 6.66068V7.52889V8.88052C1.49798 9.29816 1.78971 9.65348 2.08431 9.90863C2.4062 10.1874 2.85591 10.4552 3.40514 10.6885C4.50759 11.1567 6.07359 11.5124 7.9919 11.5124C9.91022 11.5124 11.4762 11.1567 12.5787 10.6885C13.1279 10.4552 13.5776 10.1874 13.8995 9.90863C14.1941 9.65348 14.4858 9.29816 14.4858 8.88052V7.52889V6.66068L13.7349 7.09642C12.297 7.93079 10.1593 8.38052 7.9919 8.38052C5.82455 8.38052 3.68684 7.93079 2.24892 7.09642ZM2.24892 11.3602L1.49798 10.9245V11.7927V13.1443C1.49798 13.562 1.78971 13.9173 2.08431 14.1725C2.4062 14.4512 2.85591 14.7191 3.40514 14.9523C4.50759 15.4206 6.07359 15.7763 7.9919 15.7763C9.91022 15.7763 11.4762 15.4206 12.5787 14.9523C13.1279 14.7191 13.5776 14.4512 13.8995 14.1725C14.1941 13.9173 14.4858 13.562 14.4858 13.1443V11.7927V10.9245L13.7349 11.3602C12.297 12.1946 10.1593 12.6443 7.9919 12.6443C5.82455 12.6443 3.68684 12.1946 2.24892 11.3602ZM15.4838 17.4082C15.4838 18.5247 14.6896 19.4577 13.2621 20.1385C11.8458 20.8139 9.9263 21.172 7.9919 21.172C6.0575 21.172 4.13796 20.8139 2.72169 20.1385C1.29421 19.4577 0.5 18.5247 0.5 17.4082V4.6167C0.5 3.5002 1.29421 2.56716 2.72169 1.88639C4.13796 1.21097 6.0575 0.852875 7.9919 0.852875C9.9263 0.852875 11.8458 1.21097 13.2621 1.88639C14.6896 2.56716 15.4838 3.5002 15.4838 4.6167V17.4082ZM14.4858 4.6167C14.4858 4.19907 14.1941 3.84374 13.8995 3.5886C13.5776 3.30982 13.1279 3.04199 12.5787 2.80872C11.4762 2.34048 9.91022 1.98479 7.9919 1.98479C6.07359 1.98479 4.50759 2.34048 3.40514 2.80872C2.85591 3.04199 2.4062 3.30982 2.08431 3.5886C1.78971 3.84374 1.49798 4.19907 1.49798 4.6167C1.49798 5.03433 1.78971 5.38966 2.08431 5.6448C2.4062 5.92358 2.85591 6.19141 3.40514 6.42468C4.50759 6.89292 6.07359 7.24861 7.9919 7.24861C9.91022 7.24861 11.4762 6.89292 12.5787 6.42468C13.1279 6.19141 13.5776 5.92358 13.8995 5.6448C14.1941 5.38966 14.4858 5.03433 14.4858 4.6167Z" fill="#9197B3" stroke="#9197B3"/>
</svg>
