<svg width="16" height="14" viewBox="0 0 16 14" fill="none" xmlns="http://www.w3.org/2000/svg">
<path d="M14.928 2.03821L15.2816 1.68471L14.928 2.03821C15.2838 2.39421 15.4838 2.8771 15.4838 3.38064V11.3753C15.4838 11.8789 15.2838 12.3617 14.928 12.7177C14.5721 13.0737 14.0894 13.2737 13.5862 13.2737H2.39757C1.89436 13.2737 1.41172 13.0737 1.05585 12.7177C0.699964 12.3617 0.5 11.8789 0.5 11.3753V3.38064C0.5 2.8771 0.699964 2.39421 1.05585 2.03821C1.41172 1.68221 1.89436 1.48224 2.39757 1.48224H13.5862C14.0894 1.48224 14.5721 1.68221 14.928 2.03821ZM13.3509 2.98105L14.5497 2.08117H13.0508H2.93303H1.43407L2.63286 2.98105L7.69174 6.77851L7.9919 7.00384L8.29207 6.77851L13.3509 2.98105ZM1.89845 3.18056L1.09838 2.5803V3.58051V11.3753C1.09838 11.7199 1.23522 12.0504 1.47884 12.2941C1.72248 12.5378 2.05295 12.6748 2.39757 12.6748H13.5862C13.9309 12.6748 14.2613 12.5378 14.505 12.2941C14.7486 12.0504 14.8854 11.7199 14.8854 11.3753V3.58051V2.5803L14.0854 3.18056L8.17135 7.6176C8.11956 7.65645 8.05659 7.67744 7.9919 7.67744C7.92721 7.67744 7.86424 7.65645 7.81245 7.6176L1.89845 3.18056Z" fill="#9197B3" stroke="#9197B3"/>
</svg>
