<svg width="51" height="51" viewBox="0 0 51 51" fill="none" xmlns="http://www.w3.org/2000/svg">
<g clip-path="url(#clip0_43_56)">
<path d="M34.8713 4.403C36.6134 6.14441 37.8369 8.33601 38.4051 10.7328C38.9732 13.1297 38.8636 15.6373 38.0885 17.9754L37.9801 18.2665L38.454 18.36C38.9144 18.462 39.3713 18.5895 39.8246 18.7425L40.5004 18.9911L41.0316 19.2142C45.611 21.2755 48.6221 25.7316 48.8538 30.8656V31.3267C48.8529 32.1721 48.5163 32.9825 47.9179 33.5797C47.3195 34.1769 46.5084 34.5119 45.6631 34.5111C44.8177 34.5102 44.0073 34.1736 43.4101 33.5752C42.8129 32.9768 42.4779 32.1657 42.4788 31.3204L42.483 31.0122C42.4332 29.9194 42.1245 28.854 41.5823 27.9038C41.0402 26.9536 40.28 26.1458 39.3645 25.5469C38.4489 24.948 37.4042 24.5752 36.3164 24.4592C35.2286 24.3432 34.1288 24.4872 33.1075 24.8795L32.9141 24.9581L32.9226 25.0389L32.9375 25.5C32.938 26.8337 32.5798 28.143 31.9005 29.2907C31.2212 30.4385 30.2458 31.3824 29.0764 32.0237L28.7364 32.198L28.7661 32.4317C28.9404 33.5176 29.3718 34.5504 30.0305 35.4407L30.328 35.8126C30.929 36.518 31.6657 37.0953 32.4945 37.51C33.3232 37.9248 34.2269 38.1685 35.1518 38.2266L35.5831 38.2394C36.4285 38.2394 37.2393 38.5752 37.837 39.173C38.4348 39.7707 38.7706 40.5815 38.7706 41.4269C38.7706 42.2722 38.4348 43.083 37.837 43.6808C37.2393 44.2785 36.4285 44.6144 35.5831 44.6144C33.759 44.6146 31.9543 44.2391 30.2817 43.5111C28.6091 42.7832 27.1043 41.7185 25.8613 40.3835L25.4851 39.9606L25.3194 40.1561C23.1614 42.571 20.2011 44.1217 16.9873 44.5209L16.4071 44.5804L15.8568 44.6144H15.3956C14.5503 44.6135 13.7398 44.2769 13.1427 43.6785C12.847 43.3822 12.6125 43.0306 12.4527 42.6437C12.2929 42.2568 12.2109 41.8423 12.2113 41.4237C12.2117 41.0051 12.2946 40.5907 12.4552 40.2041C12.6157 39.8176 12.8509 39.4664 13.1472 39.1707C13.7455 38.5735 14.5566 38.2385 15.402 38.2394L15.7101 38.2436C17.329 38.1699 18.8704 37.5292 20.0646 36.4337C21.2587 35.3382 22.0296 33.8576 22.2424 32.2511L22.2488 32.1874L21.9066 32.011C20.7995 31.3999 19.8665 30.5167 19.1958 29.4447C18.525 28.3728 18.1386 27.1475 18.0731 25.8846L18.0625 25.4702L18.0753 25.0644L18.0816 24.973L17.9223 24.905C16.2836 24.2609 14.4608 24.267 12.8265 24.922L12.4206 25.1005C11.2438 25.6622 10.25 26.5457 9.5543 27.6487C8.85859 28.7517 8.48938 30.0291 8.48938 31.3331C8.48938 32.1785 8.15356 32.9893 7.55578 33.587C6.95801 34.1848 6.14726 34.5206 5.30188 34.5206C4.4565 34.5206 3.64575 34.1848 3.04798 33.587C2.4502 32.9893 2.11438 32.1785 2.11438 31.3331C2.11485 28.2588 3.18185 25.2799 5.13339 22.9044C7.08492 20.5289 9.80012 18.904 12.8159 18.3069L12.9795 18.2771L12.8733 17.9732L12.7033 17.4207L12.563 16.8895C12.0606 14.7761 12.0826 12.5718 12.6271 10.4688C13.1715 8.36585 14.2219 6.42788 15.6868 4.82375L16.0331 4.45825C16.3202 4.14835 16.666 3.89861 17.0505 3.72355C17.435 3.54848 17.8504 3.45159 18.2726 3.4385C18.6949 3.4254 19.1155 3.49637 19.5101 3.64728C19.9047 3.79819 20.2653 4.02602 20.571 4.31754C20.8768 4.60906 21.1215 4.95844 21.291 5.34538C21.4606 5.73232 21.5515 6.14909 21.5585 6.57148C21.5655 6.99386 21.4885 7.41343 21.3319 7.80579C21.1754 8.19815 20.9424 8.55548 20.6465 8.857L20.3554 9.16087C19.7224 9.86062 19.2395 10.6827 18.9365 11.5763C18.6334 12.4699 18.5168 13.4161 18.5936 14.3566C18.6705 15.297 18.9393 16.2117 19.3833 17.0443C19.8274 17.8768 20.4374 18.6096 21.1756 19.1972L21.3541 19.329L21.4604 19.2567C22.5254 18.5668 23.7493 18.1608 25.0155 18.0774L25.5 18.0625C26.9514 18.0625 28.339 18.4811 29.5248 19.244L29.6268 19.3141L29.7691 19.2121C30.9102 18.3083 31.7365 17.067 32.13 15.6655L32.2363 15.2405C32.4617 14.1856 32.4369 13.0926 32.1638 12.049C31.8907 11.0054 31.377 10.0403 30.6638 9.23099L30.3641 8.91224C30.0596 8.61835 29.8166 8.26674 29.6493 7.87793C29.4821 7.48913 29.394 7.07091 29.3901 6.64767C29.3862 6.22444 29.4667 5.80468 29.6268 5.41287C29.7868 5.02107 30.0234 4.66507 30.3225 4.36564C30.6216 4.06622 30.9774 3.82937 31.3691 3.66892C31.7607 3.50846 32.1804 3.42762 32.6036 3.43109C33.0269 3.43457 33.4452 3.5223 33.8341 3.68917C34.2231 3.85604 34.5771 4.0987 34.8713 4.403Z" fill="white"/>
</g>
<defs>
<clipPath id="clip0_43_56">
<rect width="51" height="51" fill="white"/>
</clipPath>
</defs>
</svg>
