<svg width="51" height="51" viewBox="0 0 51 51" fill="none" xmlns="http://www.w3.org/2000/svg">
<g clip-path="url(#clip0_43_62)">
<path d="M12.75 12.0424C12.75 9.97571 13.571 7.99369 15.0323 6.53233C16.4937 5.07098 18.4757 4.25 20.5424 4.25H38.9576C41.0243 4.25 43.0063 5.07098 44.4677 6.53233C45.929 7.99369 46.75 9.97571 46.75 12.0424V30.4576C46.75 32.5243 45.929 34.5063 44.4677 35.9677C43.0063 37.429 41.0243 38.25 38.9576 38.25H20.5424C18.4757 38.25 16.4937 37.429 15.0323 35.9677C13.571 34.5063 12.75 32.5243 12.75 30.4576V12.0424Z" fill="white"/>
<path d="M4.25 19.125C4.25 16.8002 5.38262 15.2405 7.46725 14.0802C7.95982 13.8063 8.54103 13.7393 9.08301 13.894C9.62499 14.0486 10.0833 14.4122 10.3573 14.9047C10.6312 15.3973 10.6982 15.9785 10.5435 16.5205C10.3889 17.0625 10.0253 17.5208 9.53275 17.7947C8.687 18.2644 8.5 18.5215 8.5 19.125V40.375C8.5 41.5395 9.4605 42.5 10.625 42.5H31.8708C32.5508 42.5 33.184 42.1727 33.5814 41.6351L33.7195 41.4226C33.8576 41.1801 34.0422 40.9672 34.2626 40.796C34.483 40.6248 34.735 40.4987 35.0042 40.4249C35.2733 40.3511 35.5544 40.3311 35.8313 40.3659C36.1082 40.4007 36.3755 40.4897 36.618 40.6279C36.8605 40.766 37.0734 40.9506 37.2446 41.171C37.4158 41.3914 37.5419 41.6434 37.6157 41.9125C37.6895 42.1817 37.7095 42.4627 37.6747 42.7396C37.6399 43.0165 37.5509 43.2839 37.4128 43.5264C36.8564 44.5047 36.051 45.3183 35.0783 45.8845C34.1057 46.4507 33.0005 46.7493 31.875 46.75H10.625C7.1145 46.75 4.25 43.8855 4.25 40.375V19.125Z" fill="white"/>
</g>
<defs>
<clipPath id="clip0_43_62">
<rect width="51" height="51" fill="white"/>
</clipPath>
</defs>
</svg>
