<svg width="51" height="51" viewBox="0 0 51 51" fill="none" xmlns="http://www.w3.org/2000/svg">
<g clip-path="url(#clip0_43_79)">
<path d="M25.8868 4.25C30.0093 4.29675 34.1296 5.06175 38.25 6.545L39.0235 6.83187C41.7052 7.86732 44.2907 9.13658 46.75 10.625C46.75 22.5633 42.5914 32.4233 34.2762 40.205C31.6412 42.8379 28.9638 44.8885 26.2438 46.3633L25.5 46.75C22.525 45.2561 19.5989 43.0759 16.7237 40.2071C8.41075 32.4232 4.25 22.5633 4.25 10.625C9.65813 7.38013 15.0662 5.37412 20.4765 4.607L21.25 4.505C22.5322 4.35012 23.8218 4.265 25.1132 4.25H25.8868Z" stroke="white" stroke-width="2" stroke-linecap="round" stroke-linejoin="round"/>
<path d="M4.46252 15.0238C8.86765 29.3038 15.8801 31.3799 25.5 21.25C25.5 12.75 28.3836 7.74989 34.1488 6.24751L35.4025 6.01376" stroke="white" stroke-width="2" stroke-linecap="round" stroke-linejoin="round"/>
<path d="M34.7438 39.3338C34.7438 39.3338 40.375 27.625 25.5 21.25" stroke="white" stroke-width="2" stroke-linecap="round" stroke-linejoin="round"/>
</g>
<defs>
<clipPath id="clip0_43_79">
<rect width="51" height="51" fill="white"/>
</clipPath>
</defs>
</svg>
