<svg width="51" height="51" viewBox="0 0 51 51" fill="none" xmlns="http://www.w3.org/2000/svg">
<g clip-path="url(#clip0_43_67)">
<path d="M19.125 25.5C19.125 27.1908 19.7966 28.8123 20.9922 30.0078C22.1877 31.2034 23.8092 31.875 25.5 31.875C27.1908 31.875 28.8123 31.2034 30.0078 30.0078C31.2034 28.8123 31.875 27.1908 31.875 25.5C31.875 23.8092 31.2034 22.1877 30.0078 20.9922C28.8123 19.7966 27.1908 19.125 25.5 19.125C23.8092 19.125 22.1877 19.7966 20.9922 20.9922C19.7966 22.1877 19.125 23.8092 19.125 25.5Z" stroke="white" stroke-width="2" stroke-linecap="round" stroke-linejoin="round"/>
<path d="M12.75 12.75H20.1875L25.5 7.4375L30.8125 12.75H38.25V20.1875L43.5625 25.5L38.25 30.8125V38.25H30.8125L25.5 43.5625L20.1875 38.25H12.75V30.8125L7.4375 25.5L12.75 20.1875V12.75Z" stroke="white" stroke-width="2" stroke-linecap="round" stroke-linejoin="round"/>
</g>
<defs>
<clipPath id="clip0_43_67">
<rect width="51" height="51" fill="white"/>
</clipPath>
</defs>
</svg>
