<svg width="51" height="51" viewBox="0 0 51 51" fill="none" xmlns="http://www.w3.org/2000/svg">
<g clip-path="url(#clip0_43_72)">
<path d="M29.75 8.5H42.5V21.25H29.75V8.5Z" stroke="white" stroke-width="2" stroke-linecap="round" stroke-linejoin="round"/>
<path d="M8.5 29.75H21.25V42.5H8.5V29.75Z" stroke="white" stroke-width="2" stroke-linecap="round" stroke-linejoin="round"/>
<path d="M29.75 36.125C29.75 37.8158 30.4216 39.4373 31.6172 40.6328C32.8127 41.8284 34.4342 42.5 36.125 42.5C37.8158 42.5 39.4373 41.8284 40.6328 40.6328C41.8284 39.4373 42.5 37.8158 42.5 36.125C42.5 34.4342 41.8284 32.8127 40.6328 31.6172C39.4373 30.4216 37.8158 29.75 36.125 29.75C34.4342 29.75 32.8127 30.4216 31.6172 31.6172C30.4216 32.8127 29.75 34.4342 29.75 36.125Z" stroke="white" stroke-width="2" stroke-linecap="round" stroke-linejoin="round"/>
<path d="M8.5 14.875C8.5 15.7122 8.66489 16.5412 8.98527 17.3146C9.30564 18.0881 9.77522 18.7908 10.3672 19.3828C10.9592 19.9748 11.6619 20.4444 12.4354 20.7647C13.2088 21.0851 14.0378 21.25 14.875 21.25C15.7122 21.25 16.5412 21.0851 17.3146 20.7647C18.0881 20.4444 18.7908 19.9748 19.3828 19.3828C19.9748 18.7908 20.4444 18.0881 20.7647 17.3146C21.0851 16.5412 21.25 15.7122 21.25 14.875C21.25 14.0378 21.0851 13.2088 20.7647 12.4354C20.4444 11.6619 19.9748 10.9592 19.3828 10.3672C18.7908 9.77522 18.0881 9.30564 17.3146 8.98527C16.5412 8.66489 15.7122 8.5 14.875 8.5C14.0378 8.5 13.2088 8.66489 12.4354 8.98527C11.6619 9.30564 10.9592 9.77522 10.3672 10.3672C9.77522 10.9592 9.30564 11.6619 8.98527 12.4354C8.66489 13.2088 8.5 14.0378 8.5 14.875Z" stroke="white" stroke-width="2" stroke-linecap="round" stroke-linejoin="round"/>
</g>
<defs>
<clipPath id="clip0_43_72">
<rect width="51" height="51" fill="white"/>
</clipPath>
</defs>
</svg>
