<svg width="51" height="51" viewBox="0 0 51 51" fill="none" xmlns="http://www.w3.org/2000/svg">
<g clip-path="url(#clip0_43_40)">
<path d="M13.8125 25.5C15.8943 25.4999 17.9303 26.1113 19.6676 27.2584C21.4048 28.4055 22.7669 30.0377 23.5844 31.9523C24.402 33.8668 24.6392 35.9794 24.2664 38.0275C23.8936 40.0757 22.9274 41.9692 21.4876 43.4729C20.0479 44.9767 18.1982 46.0243 16.1681 46.4857C14.1381 46.9472 12.0172 46.802 10.069 46.0684C8.12069 45.3348 6.43086 44.045 5.20935 42.3592C3.98784 40.6735 3.28848 38.666 3.19812 36.5861L3.1875 36.125L3.19812 35.6639C3.31695 32.9285 4.48716 30.3445 6.46472 28.4509C8.44228 26.5573 11.0745 25.5002 13.8125 25.5Z" fill="white"/>
<path d="M37.1875 25.5C39.2693 25.4999 41.3053 26.1113 43.0426 27.2584C44.7798 28.4055 46.1419 30.0377 46.9594 31.9523C47.777 33.8668 48.0142 35.9794 47.6414 38.0275C47.2686 40.0757 46.3024 41.9692 44.8626 43.4729C43.4229 44.9767 41.5732 46.0243 39.5431 46.4857C37.5131 46.9472 35.3922 46.802 33.444 46.0684C31.4957 45.3348 29.8059 44.045 28.5843 42.3592C27.3628 40.6735 26.6635 38.666 26.5731 36.5861L26.5625 36.125L26.5731 35.6639C26.692 32.9285 27.8622 30.3445 29.8397 28.4509C31.8173 26.5573 34.4495 25.5002 37.1875 25.5Z" fill="white"/>
<path d="M25.5 4.25C27.5818 4.24988 29.6178 4.86134 31.3551 6.00844C33.0923 7.15553 34.4544 8.78772 35.2719 10.7023C36.0895 12.6168 36.3267 14.7294 35.9539 16.7775C35.5811 18.8257 34.6149 20.7192 33.1751 22.2229C31.7354 23.7267 29.8857 24.7743 27.8556 25.2357C25.8256 25.6972 23.7047 25.552 21.7565 24.8184C19.8082 24.0848 18.1184 22.795 16.8968 21.1092C15.6753 19.4235 14.976 17.416 14.8856 15.3361L14.875 14.875L14.8856 14.4139C15.0045 11.6785 16.1747 9.09453 18.1522 7.2009C20.1298 5.30728 22.762 4.25016 25.5 4.25Z" fill="white"/>
</g>
<defs>
<clipPath id="clip0_43_40">
<rect width="51" height="51" fill="white"/>
</clipPath>
</defs>
</svg>
