<svg width="51" height="51" viewBox="0 0 51 51" fill="none" xmlns="http://www.w3.org/2000/svg">
<path d="M34 42.5H40.375C40.9386 42.5 41.4791 42.2761 41.8776 41.8776C42.2761 41.4791 42.5 40.9386 42.5 40.375V10.625C42.5 10.0614 42.2761 9.52091 41.8776 9.1224C41.4791 8.72388 40.9386 8.5 40.375 8.5H34V42.5Z" stroke="white" stroke-width="2" stroke-linecap="round" stroke-linejoin="round"/>
<path d="M10.625 42.5H17V8.5H10.625C10.0614 8.5 9.52091 8.72388 9.1224 9.1224C8.72388 9.52091 8.5 10.0614 8.5 10.625V40.375C8.5 40.9386 8.72388 41.4791 9.1224 41.8776C9.52091 42.2761 10.0614 42.5 10.625 42.5Z" stroke="white" stroke-width="2" stroke-linecap="round" stroke-linejoin="round"/>
<path d="M34 8.5L25.5 17L17 8.5" stroke="white" stroke-width="2" stroke-linecap="round" stroke-linejoin="round"/>
<path d="M8.5 13.8125L25.5 29.75L42.5 13.8125" stroke="white" stroke-width="2" stroke-linecap="round" stroke-linejoin="round"/>
</svg>
