<svg width="51" height="51" viewBox="0 0 51 51" fill="none" xmlns="http://www.w3.org/2000/svg">
<g clip-path="url(#clip0_40_7)">
<path d="M21.25 21.25H29.75V29.75H21.25V21.25Z" stroke="white" stroke-width="2" stroke-linecap="round" stroke-linejoin="round"/>
<path d="M21.25 21.25L13.8125 13.8125" stroke="white" stroke-width="2" stroke-linecap="round" stroke-linejoin="round"/>
<path d="M21.165 12.75C20.9696 11.3827 20.3973 10.0968 19.5123 9.03646C18.6272 7.97609 17.4644 7.18312 16.1541 6.7464C14.8437 6.30967 13.4377 6.24644 12.0935 6.5638C10.7492 6.88115 9.51991 7.56655 8.54326 8.5432C7.56661 9.51985 6.88121 10.7492 6.56386 12.0934C6.2465 13.4376 6.30973 14.8437 6.74646 16.154C7.18318 17.4643 7.97615 18.6272 9.03652 19.5122C10.0969 20.3973 11.3828 20.9696 12.75 21.165" stroke="white" stroke-width="2" stroke-linecap="round" stroke-linejoin="round"/>
<path d="M29.75 21.25L37.1875 13.8125" stroke="white" stroke-width="2" stroke-linecap="round" stroke-linejoin="round"/>
<path d="M38.25 21.165C39.6173 20.9696 40.9031 20.3973 41.9635 19.5122C43.0239 18.6272 43.8168 17.4643 44.2535 16.154C44.6903 14.8437 44.7535 13.4376 44.4362 12.0934C44.1188 10.7492 43.4334 9.51985 42.4567 8.5432C41.4801 7.56655 40.2508 6.88115 38.9065 6.5638C37.5623 6.24644 36.1563 6.30967 34.8459 6.7464C33.5356 7.18312 32.3728 7.97609 31.4877 9.03646C30.6027 10.0968 30.0304 11.3827 29.835 12.75" stroke="white" stroke-width="2" stroke-linecap="round" stroke-linejoin="round"/>
<path d="M29.75 29.75L37.1875 37.1875" stroke="white" stroke-width="2" stroke-linecap="round" stroke-linejoin="round"/>
<path d="M29.835 38.25C30.0304 39.6173 30.6027 40.9032 31.4877 41.9635C32.3728 43.0239 33.5356 43.8169 34.8459 44.2536C36.1563 44.6903 37.5623 44.7535 38.9065 44.4362C40.2508 44.1188 41.4801 43.4334 42.4567 42.4568C43.4334 41.4801 44.1188 40.2508 44.4362 38.9066C44.7535 37.5623 44.6903 36.1563 44.2535 34.846C43.8168 33.5356 43.0239 32.3728 41.9635 31.4878C40.9031 30.6027 39.6173 30.0304 38.25 29.835" stroke="white" stroke-width="2" stroke-linecap="round" stroke-linejoin="round"/>
<path d="M21.25 29.75L13.8125 37.1875" stroke="white" stroke-width="2" stroke-linecap="round" stroke-linejoin="round"/>
<path d="M12.75 29.835C11.3828 30.0304 10.0969 30.6027 9.03652 31.4878C7.97615 32.3728 7.18318 33.5356 6.74646 34.846C6.30973 36.1563 6.2465 37.5623 6.56386 38.9066C6.88121 40.2508 7.56661 41.4801 8.54326 42.4568C9.51991 43.4334 10.7492 44.1188 12.0935 44.4362C13.4377 44.7535 14.8437 44.6903 16.1541 44.2536C17.4644 43.8169 18.6272 43.0239 19.5123 41.9635C20.3973 40.9032 20.9696 39.6173 21.165 38.25" stroke="white" stroke-width="2" stroke-linecap="round" stroke-linejoin="round"/>
</g>
<defs>
<clipPath id="clip0_40_7">
<rect width="51" height="51" fill="white"/>
</clipPath>
</defs>
</svg>
