<svg width="43" height="47" viewBox="0 0 43 47" fill="none" xmlns="http://www.w3.org/2000/svg">
<path d="M24.7903 0.906778L39.134 9.36428C39.2757 9.44928 39.4032 9.54349 39.5165 9.6469L39.5356 9.6639L39.7609 9.82328C40.5578 10.4203 41.2149 11.1841 41.6861 12.0613C42.1574 12.9385 42.4315 13.9079 42.4894 14.902L42.5 15.3334V30.8119C42.5 33.3088 41.1336 35.6059 39.0511 36.747L24.5926 45.8888C22.5101 47.032 19.9899 47.032 17.7926 45.8208L3.56575 36.8172C2.48838 36.2269 1.58917 35.3583 0.961967 34.302C0.334763 33.2457 0.00255231 32.0404 2.16699e-06 30.8119V15.3313C-0.000967707 14.1143 0.323642 12.9193 0.940166 11.8701C1.55669 10.8209 2.44268 9.95569 3.50625 9.36428L17.9031 0.874903C18.9592 0.295557 20.1453 -0.00550029 21.3498 7.60791e-05C22.5542 0.00565245 23.7375 0.317679 24.7881 0.906778M23.4281 12.2607C22.7826 11.8892 22.0518 11.6913 21.307 11.6861C20.5623 11.6808 19.8288 11.8685 19.1781 12.2309L12.7543 16.0644C12.1047 16.4359 11.5653 16.9731 11.1913 17.6212C10.8172 18.2693 10.6218 19.0051 10.625 19.7534V26.7192C10.6246 27.478 10.8274 28.223 11.2123 28.877C11.5972 29.5309 12.1502 30.0699 12.8138 30.4379L19.074 34.4542C20.4701 35.234 22.0278 35.234 23.3113 34.5243L29.801 30.3699C31.0378 29.6857 31.875 28.2619 31.875 26.717V19.7534L31.8644 19.4049C31.82 18.8338 31.6607 18.2776 31.3959 17.7696C31.1312 17.2617 30.7665 16.8125 30.3238 16.449L30.1283 16.3003L30.0093 16.2004C29.9439 16.1512 29.8758 16.1058 29.8053 16.0644L23.4281 12.2607Z" fill="white"/>
</svg>
