<svg width="39" height="41" viewBox="0 0 39 41" fill="none" xmlns="http://www.w3.org/2000/svg">
<path d="M13.75 34.8349C4.6125 37.8099 4.6125 29.5224 1 28.4599M26.5 39.0849V31.6474C26.5 29.5224 26.7125 28.6724 25.4375 27.3974C31.3875 26.7599 37.125 24.4224 37.125 14.6474C37.1224 12.108 36.1317 9.6692 34.3625 7.84742C35.1922 5.6416 35.1159 3.19713 34.15 1.04742C34.15 1.04742 31.8125 0.409918 26.7125 3.80992C22.3929 2.68492 17.8571 2.68492 13.5375 3.80992C8.4375 0.409918 6.1 1.04742 6.1 1.04742C5.13415 3.19713 5.05776 5.6416 5.8875 7.84742C4.11834 9.6692 3.12759 12.108 3.125 14.6474C3.125 24.4224 8.8625 26.7599 14.8125 27.3974C13.5375 28.6724 13.5375 29.9474 13.75 31.6474V39.0849" stroke="white" stroke-width="2" stroke-linecap="round" stroke-linejoin="round"/>
</svg>
