<svg width="43" height="39" viewBox="0 0 43 39" fill="none" xmlns="http://www.w3.org/2000/svg">
<path d="M21.2511 2.92333e-08C25.6604 -0.000231191 29.9607 1.37117 33.5557 3.92412C37.1508 6.47708 39.8627 10.0851 41.3156 14.2483C42.7684 18.4114 42.8903 22.9233 41.6642 27.1588C40.4382 31.3942 37.9249 35.1434 34.4729 37.8866C34.097 38.1852 33.6311 38.3477 33.1511 38.3477H9.35112C8.8711 38.3477 8.40522 38.1852 8.02936 37.8866C4.5773 35.1434 2.06407 31.3942 0.838017 27.1588C-0.388038 22.9233 -0.266198 18.4114 1.18665 14.2483C2.6395 10.0851 5.3514 6.47708 8.94649 3.92412C12.5416 1.37117 16.8418 -0.000231191 21.2511 2.92333e-08ZM30.191 12.4079C29.7925 12.0095 29.2521 11.7857 28.6886 11.7857C28.1251 11.7857 27.5847 12.0095 27.1862 12.4079L22.3497 17.2401C21.7404 17.0781 21.1027 17.0535 20.4827 17.1681C19.8627 17.2827 19.2759 17.5336 18.7647 17.9026C18.2535 18.2717 17.8306 18.7497 17.5267 19.3022C17.2229 19.8546 17.0455 20.4676 17.0075 21.097L17.0011 21.3478C17.0022 21.952 17.1322 22.549 17.3823 23.0991C17.6324 23.6491 17.9969 24.1395 18.4515 24.5376C18.9061 24.9356 19.4404 25.2321 20.0187 25.4073C20.5969 25.5825 21.2059 25.6324 21.805 25.5537C22.4041 25.4749 22.9795 25.2693 23.4928 24.9506C24.0062 24.6319 24.4457 24.2074 24.782 23.7054C25.1183 23.2034 25.3437 22.6355 25.4431 22.0395C25.5426 21.4435 25.5138 20.8331 25.3587 20.2491L30.191 15.4126C30.5894 15.0141 30.8132 14.4737 30.8132 13.9102C30.8132 13.3468 30.5894 12.8064 30.191 12.4079Z" fill="white"/>
</svg>
