<svg width="22" height="18" viewBox="0 0 22 18" fill="none" xmlns="http://www.w3.org/2000/svg">
<path fill-rule="evenodd" clip-rule="evenodd" d="M0 1.55048C0 0.694174 0.650563 0 1.45307 0H9.44498C10.2475 0 10.898 0.694174 10.898 1.55048C10.898 2.40679 10.2475 3.10096 9.44498 3.10096H1.45307C0.650563 3.10096 0 2.40679 0 1.55048Z" fill="#51459E"/>
<path fill-rule="evenodd" clip-rule="evenodd" d="M0 8.52778C0 7.67147 0.650563 6.97729 1.45307 6.97729H19.6165C20.419 6.97729 21.0696 7.67147 21.0696 8.52778C21.0696 9.38408 20.419 10.0783 19.6165 10.0783H1.45307C0.650563 10.0783 0 9.38408 0 8.52778Z" fill="#51459E"/>
<path fill-rule="evenodd" clip-rule="evenodd" d="M0 15.5048C0 14.6485 0.650563 13.9543 1.45307 13.9543H16.7103C17.5129 13.9543 18.1634 14.6485 18.1634 15.5048C18.1634 16.3611 17.5129 17.0553 16.7103 17.0553H1.45307C0.650563 17.0553 0 16.3611 0 15.5048Z" fill="#51459E"/>
</svg>
