<svg width="14" height="16" viewBox="0 0 14 16" fill="none" xmlns="http://www.w3.org/2000/svg">
<path d="M9.90538 15.1273C9.90538 15.3587 9.8178 15.5807 9.66189 15.7444C9.50599 15.9081 9.29453 16 9.07405 16H4.64026C4.41978 16 4.20833 15.9081 4.05242 15.7444C3.89652 15.5807 3.80893 15.3587 3.80893 15.1273C3.80893 14.8958 3.89652 14.6738 4.05242 14.5102C4.20833 14.3465 4.41978 14.2545 4.64026 14.2545H9.07405C9.29453 14.2545 9.50599 14.3465 9.66189 14.5102C9.8178 14.6738 9.90538 14.8958 9.90538 15.1273ZM13.53 12.3631C13.4099 12.5853 13.2355 12.7699 13.0248 12.8978C12.8141 13.0258 12.5747 13.0924 12.3313 13.0909H1.38303C1.1396 13.0924 0.900198 13.0258 0.689482 12.8978C0.478765 12.7699 0.304361 12.5852 0.184241 12.363C0.0629428 12.1408 -0.000591632 11.889 4.15186e-06 11.6329C0.000599936 11.3768 0.065305 11.1253 0.187635 10.9037C0.581827 10.1917 1.05188 8.83244 1.05188 6.4V6.10909C1.05004 4.49085 1.66061 2.93812 2.74927 1.79245C3.83794 0.646784 5.31553 0.00202406 6.85702 0L6.90136 0.000145513C10.0783 0.0249455 12.663 2.79491 12.663 6.17484V6.4C12.663 8.83258 13.1327 10.192 13.5267 10.904C13.649 11.1256 13.7137 11.377 13.7143 11.6331C13.7149 11.8891 13.6513 12.1409 13.53 12.3631ZM11.8706 11.3455C11.1579 9.77818 11.0003 7.82204 11.0003 6.4V6.17484C11.0003 3.75025 9.15601 1.7632 6.88903 1.7456C6.87847 1.74551 6.86792 1.74547 6.85737 1.74545C6.31241 1.74641 5.77297 1.86003 5.26985 2.07984C4.76673 2.29965 4.30978 2.62134 3.92508 3.02654C3.54038 3.43175 3.23548 3.91252 3.02777 4.44143C2.82007 4.97033 2.71364 5.537 2.71455 6.10909V6.4C2.71455 7.82204 2.55687 9.77825 1.84372 11.3455H11.8706Z" fill="#4E4E4E"/>
</svg>
