<svg width="18" height="18" viewBox="0 0 18 18" fill="none" xmlns="http://www.w3.org/2000/svg">
<path d="M16.314 11.9631L12.4575 10.2348C12.2828 10.16 12.0922 10.1299 11.9029 10.1473C11.7136 10.1647 11.5316 10.229 11.3734 10.3344C11.3574 10.3448 11.3421 10.3562 11.3277 10.3687L9.31213 12.0831C9.29121 12.0945 9.26793 12.1009 9.24413 12.1017C9.22033 12.1026 9.19665 12.0979 9.17498 12.088C7.87942 11.4626 6.53734 10.1287 5.90956 8.85112C5.89911 8.82978 5.89367 8.80632 5.89367 8.78255C5.89367 8.75878 5.89911 8.73532 5.90956 8.71398L7.62962 6.67308C7.64198 6.658 7.65343 6.64219 7.66391 6.62574C7.7679 6.46696 7.83072 6.28478 7.84668 6.09565C7.86264 5.90652 7.83125 5.71639 7.75534 5.54243L6.03936 1.6925C5.94191 1.46523 5.77338 1.2757 5.55907 1.15235C5.34475 1.029 5.09621 0.978486 4.85075 1.00839C3.78396 1.14864 2.80473 1.67253 2.09606 2.48216C1.38739 3.29179 0.997773 4.33176 1.00001 5.40773C1.00001 11.7998 6.20018 17 12.5922 17C13.6682 17.0021 14.708 16.6124 15.5176 15.9037C16.3272 15.1951 16.8512 14.216 16.9916 13.1492C17.0214 12.9049 16.9716 12.6575 16.8495 12.4438C16.7274 12.2301 16.5396 12.0615 16.314 11.9631ZM12.5922 16.0204C6.74061 16.0204 1.97963 11.2594 1.97963 5.40773C1.97691 4.57009 2.27924 3.76011 2.83015 3.12913C3.38106 2.49814 4.14285 2.08932 4.9732 1.97904H4.99198C5.02488 1.97965 5.05682 1.99019 5.08363 2.00927C5.11043 2.02836 5.13084 2.05509 5.14219 2.08598L6.8647 5.93183C6.87452 5.95322 6.87961 5.97647 6.87961 6C6.87961 6.02353 6.87452 6.04678 6.8647 6.06816L5.14137 8.11395C5.12858 8.12861 5.11685 8.14416 5.10627 8.16049C4.99843 8.32511 4.93493 8.51479 4.92192 8.71116C4.9089 8.90753 4.94682 9.10393 5.03198 9.28134C5.75609 10.7638 7.25002 12.2463 8.74884 12.9705C8.92729 13.0552 9.12465 13.0922 9.32166 13.0778C9.51868 13.0635 9.70862 12.9984 9.87296 12.8888C9.88847 12.8782 9.90398 12.8668 9.91868 12.8545L11.9334 11.1402C11.9533 11.1295 11.9753 11.1232 11.9979 11.1218C12.0204 11.1204 12.043 11.1239 12.0641 11.132L15.9213 12.8602C15.9528 12.8737 15.9793 12.8967 15.9971 12.926C16.0148 12.9553 16.0228 12.9894 16.0201 13.0235C15.9104 13.8543 15.502 14.6166 14.8711 15.1681C14.2403 15.7197 13.4302 16.0226 12.5922 16.0204Z" fill="#4E4E4E" stroke="#4E4E4E" stroke-width="0.9"/>
</svg>
