<svg width="105" height="36" viewBox="0 0 105 36" fill="none" xmlns="http://www.w3.org/2000/svg">
<g clip-path="url(#clip0_46_40)">
<path fill-rule="evenodd" clip-rule="evenodd" d="M26.5639 11.0472C26.8874 10.994 27.218 11.098 27.4537 11.327C30.1936 13.9912 31.7025 17.5568 31.7025 21.3671C31.7025 29.0937 25.4167 35.3799 17.6904 35.3799C11.2992 35.3799 5.72379 31.0529 4.13204 24.8575C3.83041 23.6821 3.67749 22.5078 3.67749 21.3671C3.67749 19.1278 4.20059 16.9753 5.23228 14.9693C6.24758 12.9972 7.74052 11.2704 9.54988 9.97493C9.56038 9.96739 9.57109 9.96007 9.58187 9.95288C9.64855 9.90892 9.71975 9.85682 9.79515 9.80164L9.80293 9.79595C9.81052 9.7904 9.81811 9.78485 9.8257 9.77929C9.85592 9.75717 9.88617 9.73502 9.9166 9.7131C12.7935 7.65442 14.6004 4.46304 14.8766 0.955165C14.9039 0.608966 15.1027 0.29946 15.4062 0.130645C15.7098 -0.0381015 16.0774 -0.0436987 16.386 0.115719C19.9298 1.94739 22.5315 5.21182 23.5237 9.07191C23.8254 10.2471 23.9784 11.4214 23.9784 12.5624C23.9784 13.1571 23.9396 13.7502 23.8625 14.3398C24.6354 13.5236 25.2922 12.6004 25.8094 11.5957C25.9598 11.3037 26.2397 11.1002 26.5639 11.0472ZM17.1539 25.7309C19.5224 25.7309 21.4424 23.8109 21.4424 21.4424C21.4424 19.074 19.5224 17.1539 17.1539 17.1539C14.7855 17.1539 12.8654 19.074 12.8654 21.4424C12.8654 23.8109 14.7855 25.7309 17.1539 25.7309Z" fill="#6359E9"/>
</g>
<path d="M92.2051 17V13.3245H91.0663V12.5111H94.2598V13.3245H93.139V17H92.2051ZM94.7222 17V12.5111H95.6261L97.3072 14.7405H96.8854L98.5183 12.5111H99.4221V17H98.4881V13.5414L98.8617 13.6258L97.1324 15.8552H97.0119L95.3429 13.6258L95.6562 13.5414V17H94.7222Z" fill="#9F8FFE"/>
<path d="M82.8601 30.3353L82.7313 30.6703C82.7312 30.6706 82.731 30.6709 82.7309 30.6712C82.6071 30.9893 82.4688 31.1529 82.3496 31.2324L82.3496 31.2324L82.3453 31.2353C82.2163 31.3233 82.0509 31.3749 81.8233 31.3675C81.566 31.3589 81.2591 31.3044 80.8985 31.1938L80.4184 31.0466L80.2733 31.5274L79.5233 34.0117L79.3924 34.4454L79.8111 34.6184C80.0953 34.7358 80.4351 34.8245 80.821 34.8908C81.223 34.9642 81.6483 35 82.0957 35C82.9698 35 83.7469 34.8592 84.4106 34.5574C85.0636 34.2655 85.6102 33.8446 86.0418 33.2955C86.466 32.7676 86.7963 32.1542 87.0366 31.4615C87.0367 31.4612 87.0368 31.4609 87.0369 31.4607L91.7003 18.1655L91.9338 17.5H91.2285H87.7051H87.3275L87.2242 17.8631L85.1367 25.1985L83.0691 17.8643L82.9664 17.5H82.5879H79.0879H78.384L78.6158 18.1646L82.8601 30.3353Z" fill="#9F8FFE" stroke="white"/>
<path d="M63.2129 30.1313L63.3132 30.5H63.6953H67.2109H67.5926L67.6933 30.1318L69.3477 24.0782L71.0021 30.1318L71.1027 30.5H71.4844H75.0078H75.3902L75.4903 30.131L78.7482 18.131L78.9195 17.5H78.2656H74.9062H74.5074L74.4188 17.8888L73.0112 24.0604L71.4934 17.8807L71.3999 17.5H71.0078H67.7031H67.309L67.217 17.8832L65.7198 24.1132L64.2841 17.8876L64.1947 17.5H63.7969H60.4297H59.7754L59.9472 18.1313L63.2129 30.1313Z" fill="#9F8FFE" stroke="white"/>
<path d="M55.387 16.3225L55.3871 16.3225C54.9439 15.8992 54.709 15.3719 54.709 14.7656C54.709 14.1626 54.9455 13.6396 55.3897 13.2218L55.387 16.3225ZM55.387 16.3225L55.3926 16.3277M55.387 16.3225L55.3926 16.3277M55.3926 16.3277C55.8417 16.7438 56.3885 16.9531 57.0059 16.9531C57.6233 16.9531 58.169 16.7436 58.614 16.3252L58.6142 16.325M55.3926 16.3277L58.6142 16.325M58.6142 16.325C59.0632 15.9024 59.3027 15.3745 59.3027 14.7656C59.3027 14.1612 59.0625 13.6384 58.6141 13.2217C58.17 12.7988 57.6244 12.5859 57.0059 12.5859C56.3862 12.5859 55.8386 12.7995 55.3899 13.2217L58.6142 16.325ZM54.834 30V30.5H55.334H58.6621H59.1621V30V18V17.5H58.6621H55.334H54.834V18V30Z" fill="#9F8FFE" stroke="white"/>
<path d="M36.5 30V30.5H37H43.7222C45.7218 30.5 47.4695 30.0629 48.9441 29.1665C50.4231 28.2712 51.5521 26.9872 52.3317 25.3327C53.1173 23.6787 53.5 21.7223 53.5 19.4795C53.5 17.2433 53.1172 15.2933 52.3312 13.6458C51.5521 11.9994 50.4298 10.7226 48.9636 9.83407C47.4954 8.93749 45.7598 8.5 43.7778 8.5H37H36.5V9V30ZM47.9182 23.1219L47.9176 23.1232C47.5466 24.0197 47.0036 24.6559 46.2966 25.0653C45.5818 25.4761 44.6763 25.6958 43.5556 25.6958H41.5093V13.3042H43.5648C44.6858 13.3042 45.5914 13.524 46.3064 13.9349C47.0059 14.3371 47.5462 14.969 47.9176 15.8665L47.9176 15.8665L47.9187 15.869C48.2976 16.7708 48.5 17.9666 48.5 19.4795C48.5 21.0065 48.2975 22.2129 47.9182 23.1219Z" fill="#9F8FFE" stroke="white"/>
<defs>
<clipPath id="clip0_46_40">
<rect width="35.38" height="35.38" fill="white"/>
</clipPath>
</defs>
</svg>
